<svg width="496" height="452" viewBox="0 0 496 452" fill="none" xmlns="http://www.w3.org/2000/svg">
<g clip-path="url(#clip0_337_11691)">
<path d="M441.455 425.56C441.633 433.949 440.466 442.313 437.999 450.338C437.913 450.63 437.809 450.921 437.705 451.213H386.841C387.568 447.659 388.722 444.205 390.279 440.924C394.512 432.007 401.423 424.377 408.247 416.797C417.646 406.354 426.821 395.997 428.272 382.416C431.998 388.053 434.971 394.145 437.118 400.541C434.489 401.508 432.077 402.976 430.017 404.862C429.447 405.394 428.842 406.166 429.136 406.903C429.412 407.52 430.173 407.726 430.846 407.863C432.47 408.172 434.095 408.481 435.719 408.772C436.997 409.029 438.293 409.269 439.589 409.509C440.728 414.788 441.353 420.163 441.455 425.56Z" fill="#F2F2F2"/>
<path d="M484.182 420.004C476.027 424.925 470.844 432.539 466.611 441.061C462.927 441.895 459.527 443.668 456.745 446.206C456.158 446.737 455.553 447.509 455.864 448.246C456.123 448.864 456.901 449.069 457.575 449.207C459.181 449.515 460.823 449.824 462.43 450.115C462.274 450.476 462.119 450.853 461.963 451.213H408.057C410.504 447.938 413.214 444.864 416.161 442.022C416.8 441.387 417.456 440.787 418.13 440.17C425.002 434.006 432.892 429.064 441.455 425.56C454.944 419.963 469.695 418.045 484.182 420.004Z" fill="#F2F2F2"/>
<path d="M417.042 451.213H369.045C368.783 447.398 368.806 443.569 369.114 439.758C370.153 427.961 373.757 416.528 379.678 406.246C385.599 395.965 393.695 387.08 403.41 380.204C400.922 389 402.2 397.746 404.792 406.526C404.429 406.646 404.066 406.748 403.738 406.886C401.109 407.852 398.697 409.32 396.637 411.207C396.067 411.738 395.462 412.51 395.756 413.247C396.015 413.865 396.792 414.071 397.466 414.208C399.09 414.516 400.714 414.825 402.321 415.117C403.617 415.374 404.913 415.614 406.209 415.871C406.813 415.974 407.418 416.094 408.023 416.214C408.109 416.42 408.161 416.608 408.247 416.797C411.288 425.114 414.605 433.499 416.16 442.021C416.545 444.16 416.811 446.318 416.955 448.486C417.007 449.395 417.042 450.304 417.042 451.213Z" fill="#F2F2F2"/>
<path d="M49.7639 32.245C58.7355 32.245 66.0084 25.0267 66.0084 16.1225C66.0084 7.21829 58.7355 0 49.7639 0C40.7924 0 33.5195 7.21829 33.5195 16.1225C33.5195 25.0267 40.7924 32.245 49.7639 32.245Z" fill="#FD6584"/>
<path d="M86.1228 8.48921C85.6634 6.99793 84.775 5.67243 83.5666 4.67573C82.3582 3.67903 80.8827 3.0546 79.3215 2.87924C79.2862 2.8743 79.2527 2.88083 79.2176 2.87858C79.1722 2.8648 79.1258 2.85421 79.0789 2.84689C71.6501 1.89398 63.0747 5.42031 59.9786 12.4103C59.2232 11.388 58.2284 10.5635 57.0801 10.0081C55.9318 9.45279 54.6646 9.1832 53.3878 9.22268C51.7415 9.33156 50.169 9.94135 48.8844 10.969C47.5998 11.9967 46.6655 13.3923 46.2087 14.9658C46.16 15.1584 46.1745 15.3614 46.2499 15.5453C46.3253 15.7292 46.4577 15.8845 46.6281 15.9887C47.1187 16.4014 47.7 16.6943 48.3253 16.8438C49.6744 17.1274 51.0283 17.3873 52.387 17.6233C55.0383 18.0838 57.7035 18.4561 60.3824 18.7402C65.8206 19.3186 71.2924 19.5239 76.759 19.3546C78.5797 19.2983 80.3355 19.2383 82.0037 18.4408C83.2173 17.8459 84.2541 16.9479 85.0123 15.835C85.7267 14.7654 86.1963 13.5534 86.3881 12.2843C86.58 11.0152 86.4894 9.71982 86.1228 8.48921Z" fill="#F0F0F0"/>
<path d="M52.3599 29.9858C51.9005 28.4945 51.012 27.169 49.8037 26.1723C48.5953 25.1756 47.1198 24.5512 45.5586 24.3758C45.5232 24.3709 45.4897 24.3774 45.4546 24.3752C45.4092 24.3614 45.3629 24.3508 45.316 24.3435C37.8872 23.3906 29.3118 26.9169 26.2157 33.9069C25.4603 32.8845 24.4654 32.06 23.3172 31.5047C22.1689 30.9493 20.9016 30.6798 19.6249 30.7193C17.9786 30.8282 16.406 31.4379 15.1214 32.4656C13.8368 33.4933 12.9025 34.8889 12.4457 36.4624C12.3971 36.655 12.4116 36.858 12.487 37.0419C12.5624 37.2258 12.6948 37.3811 12.8651 37.4853C13.3558 37.898 13.937 38.1908 14.5623 38.3403C15.9114 38.624 17.2653 38.8838 18.624 39.1199C21.2753 39.5804 23.9405 39.9527 26.6195 40.2368C32.0576 40.8152 37.5295 41.0205 42.9961 40.8512C44.8167 40.7949 46.5725 40.7349 48.2408 39.9374C49.4544 39.3424 50.4912 38.4444 51.2494 37.3316C51.9638 36.2619 52.4334 35.0499 52.6252 33.7809C52.8171 32.5118 52.7265 31.2164 52.3599 29.9858Z" fill="#F0F0F0"/>
<path d="M208.632 280.225C208.221 280.824 207.14 281.536 206.718 282.125L207.168 280.772L207.015 280.458L206.058 278.559L181.696 229.831L181.687 229.822L140.389 147.258V147.248L139.442 145.358V145.349L119.004 104.484L118.037 102.547C118.764 102.566 119.491 102.595 120.219 102.633L121.195 104.579L141.576 145.349L141.585 145.358L142.533 147.248V147.258L182.778 227.723V227.733L183.725 229.622V229.632L208.087 278.321L208.412 278.977L208.632 280.225Z" fill="#3F3D56"/>
<path d="M205.914 147.257H23.5959C24.0842 146.621 24.5813 145.985 25.098 145.358H204.412C204.929 145.985 205.426 146.621 205.914 147.257Z" fill="#3F3D56"/>
<path d="M229.013 227.732C228.956 228.369 228.889 229.005 228.802 229.632H182.098V227.732H229.013Z" fill="#3F3D56"/>
<path d="M30.5331 139.1V291.921C29.8729 291.227 29.2412 290.525 28.6194 289.822V141.199C29.2412 140.496 29.8729 139.793 30.5331 139.1Z" fill="#3F3D56"/>
<path d="M207.61 278.558H29.5767V280.457H207.61V278.558Z" fill="#3F3D56"/>
<path d="M207.455 280.225H207.675V279.912C207.608 280.021 207.535 280.125 207.455 280.225ZM205.982 147.025C205.493 146.388 204.996 145.752 204.48 145.125C194.316 132.469 181.548 122.111 167.029 114.743C152.51 107.375 136.574 103.167 120.286 102.4C119.559 102.362 118.832 102.333 118.105 102.314C117.014 102.286 115.923 102.267 114.822 102.267C98.9975 102.258 83.3427 105.506 68.8464 111.806C54.3502 118.106 41.3274 127.32 30.6004 138.867C29.9402 139.56 29.3085 140.263 28.6867 140.966C27.4715 142.324 26.2977 143.71 25.1653 145.125C24.6486 145.752 24.1514 146.388 23.6632 147.025C7.49285 167.947 -0.847935 193.797 0.0684551 220.151C0.984846 246.504 11.1014 271.722 28.6867 291.488C29.3085 292.191 29.9402 292.894 30.6004 293.587C42.1639 306.016 56.3738 315.73 72.1961 322.022C88.0184 328.314 105.055 331.027 122.067 329.962C139.078 328.896 155.636 324.081 170.536 315.865C185.436 307.649 198.303 296.239 208.201 282.466C208.623 281.878 209.044 281.289 209.455 280.691C220.066 265.432 226.734 247.817 228.869 229.399C228.956 228.772 229.023 228.136 229.08 227.5C229.453 223.796 229.641 220.038 229.644 216.227C229.674 191.199 221.353 166.865 205.982 147.025ZM226.946 229.399C224.864 247.078 218.53 264.002 208.479 278.744C208.22 279.133 207.953 279.522 207.675 279.912C207.608 280.021 207.535 280.125 207.455 280.225C207.388 280.33 207.312 280.434 207.235 280.539C197.474 294.38 184.683 305.849 169.82 314.086C154.957 322.322 138.409 327.113 121.415 328.098C104.421 329.083 87.423 326.237 71.6953 319.773C55.9675 313.309 41.9181 303.396 30.6003 290.776C29.9401 290.054 29.2991 289.333 28.6866 288.592C11.8611 268.917 2.40893 244.073 1.93283 218.271C1.45674 192.469 9.98598 167.297 26.0744 147.025C26.5818 146.388 27.0887 145.752 27.6148 145.125C27.9596 144.698 28.3133 144.28 28.6866 143.862C29.2991 143.121 29.9401 142.4 30.6003 141.678C41.1708 129.873 54.1423 120.427 68.6596 113.961C83.1769 107.495 98.9103 104.157 114.822 104.166C116.248 104.166 117.664 104.194 119.071 104.251C119.808 104.27 120.535 104.308 121.262 104.346C136.834 105.23 152.052 109.31 165.955 116.329C179.857 123.348 192.141 133.154 202.03 145.125C202.556 145.752 203.063 146.388 203.57 147.024C221.626 169.811 230.083 198.655 227.166 227.499C227.099 228.136 227.032 228.772 226.946 229.399ZM207.455 280.225H207.675V279.912C207.608 280.021 207.535 280.125 207.455 280.225Z" fill="#CCCCCC"/>
<path d="M100.351 66.1297C100.351 66.652 100.334 67.1698 100.3 67.6834C100.109 70.6449 99.355 73.5439 98.0783 76.2274C98.0684 76.2503 98.0567 76.2716 98.0469 76.293C97.9875 76.4174 97.9264 76.5418 97.8638 76.6646C97.4841 77.4236 97.0628 78.1614 96.602 78.8747C94.4967 82.1493 91.6112 84.8589 88.2003 86.7639C84.7895 88.6689 80.9584 89.7108 77.0456 89.7975L77.2815 103.261L80.3578 101.653L80.9071 102.69L77.3046 104.572L77.745 129.578L77.7499 129.912L75.3714 130.437L75.3763 130.102L76.1252 89.7991C72.9757 89.7543 69.8666 89.0889 66.9783 87.8416C64.0901 86.5944 61.4803 84.7901 59.3004 82.5336C59.1503 82.3798 59.0018 82.2209 58.8566 82.0638L58.8401 82.0457C57.0239 80.0799 55.555 77.8239 54.4954 75.3729C54.5185 75.399 54.5432 75.4236 54.5663 75.4498C44.7373 50.9347 50.4557 39.57 65.8785 44.9373C65.9609 44.8964 66.0451 44.8571 66.1276 44.8161C71.5219 42.2373 77.6956 41.7641 83.4249 43.4904C89.1542 45.2166 94.0209 49.0163 97.0604 54.1362C97.2057 54.3785 97.3459 54.6257 97.4811 54.8745C99.3692 58.3298 100.356 62.1991 100.351 66.1297Z" fill="#E5E5E5"/>
<path d="M128.4 45.277C128.112 49.9805 126.886 54.5805 124.793 58.8098C120.764 66.901 113.693 73.0358 104.881 75.3245C104.866 75.3322 104.849 75.3355 104.833 75.3341C102.615 75.908 100.339 76.2298 98.0487 76.2932H97.8573C97.6181 76.3027 97.3789 76.3027 97.1397 76.3027C96.977 76.3027 96.8144 76.3027 96.6517 76.2932C88.447 76.1676 80.6211 72.8446 74.8637 67.0416C69.1064 61.2386 65.8793 53.4211 65.8794 45.277V44.9351C65.8937 42.9551 66.1835 40.9865 66.7406 39.0851C66.7406 39.0757 66.7501 39.0662 66.7501 39.0566C67.7893 35.7526 69.6637 32.7676 72.1946 30.3862C78.462 24.2323 88.3845 20.3672 97.1397 14.2513C116.315 0.860933 130.4 14.1848 128.4 45.277Z" fill="#E5E5E5"/>
<path opacity="0.2" d="M124.793 58.8098C120.764 66.901 113.693 73.0359 104.881 75.3246C104.866 75.3323 104.849 75.3356 104.833 75.3341C102.621 75.879 100.356 76.1784 98.0775 76.2268H97.8574C97.4555 76.2363 97.0537 76.2363 96.6518 76.2268C88.425 76.0231 80.6098 72.6126 74.8974 66.7333C69.1849 60.854 66.0347 52.9788 66.1282 44.8117C66.1574 42.8884 66.3624 40.9717 66.7407 39.0852C66.7407 39.0757 66.7502 39.0662 66.7502 39.0567C67.7894 35.7526 69.6638 32.7677 72.1947 30.3862C71.3447 34.4104 71.3091 38.5622 72.09 42.6001C72.8709 46.6381 74.4528 50.4817 76.7436 53.9076C79.0344 57.3334 81.9884 60.2732 85.434 62.556C88.8796 64.8388 92.7481 66.419 96.8144 67.2049C97.1111 67.2619 97.4077 67.3189 97.7043 67.3664C98.5655 67.5089 99.4266 67.6133 100.297 67.6798C104.783 68.0411 109.295 67.4355 113.523 65.9045C117.751 64.3735 121.595 61.9533 124.793 58.8098Z" fill="black"/>
<path d="M98.1994 95.6612L102.919 93.1955L102.199 91.8378L98.1677 93.9439L97.8646 76.6653V76.6631L97.8574 76.2972V76.232L97.7008 67.3678L97.4815 54.875L97.3134 45.2761H97.2253L97.0608 54.136V54.1382L96.8184 67.2081L96.651 76.2263L96.6503 76.3015L96.6019 78.8745L95.6452 130.489L95.6387 130.83L98.8315 131.719L98.8257 131.376L98.1994 95.6612Z" fill="#3F3D56"/>
<path d="M212.077 156.783C192.234 152.837 172.327 149.257 152.178 147.067C133.073 144.836 113.808 144.283 94.6048 145.414C77.2625 146.575 59.7716 149.298 43.4798 155.504C30.9256 160.287 17.5435 167.523 10.7622 179.59C4.22528 191.222 6.77487 204.636 13.8927 215.368C22.4569 228.282 35.8116 237.131 49.6961 243.598C65.5048 250.962 82.4137 255.735 99.3442 259.795C107.931 261.854 116.564 263.715 125.198 265.566C126.999 265.953 127.769 263.207 125.961 262.819C108.55 259.085 91.0886 255.339 74.11 249.934C58.398 244.932 42.319 238.524 29.4523 228.021C19.0431 219.523 9.14613 207.112 9.76052 193.001C10.3799 178.775 22.4057 168.843 34.1926 162.729C48.9229 155.089 65.6586 151.367 82.0577 149.422C100.835 147.345 119.771 147.09 138.598 148.659C163.761 150.559 188.55 154.967 213.246 159.904" fill="black"/>
<path d="M118.917 179.439C127.268 183.582 132.352 189.053 132.352 195.053C132.352 207.98 108.784 218.46 79.7109 218.46C67.0709 218.46 55.4745 216.477 46.4001 213.176C56.0384 217.957 70.0294 220.968 85.6067 220.968C114.679 220.968 138.248 210.488 138.248 197.561C138.248 190.255 130.715 183.732 118.917 179.439Z" fill="#F1F1F1"/>
<path d="M137.492 188.319C146.915 192.993 152.652 199.166 152.652 205.937C152.652 220.524 126.057 232.349 93.2523 232.349C78.9894 232.349 65.9045 230.112 55.665 226.386C66.5407 231.781 82.3279 235.178 99.905 235.178C132.71 235.178 159.304 223.354 159.304 208.767C159.304 200.523 150.804 193.162 137.492 188.319Z" fill="#F1F1F1"/>
<path d="M111.809 183.35C117.692 186.269 121.274 190.123 121.274 194.351C121.274 203.458 104.669 210.841 84.1868 210.841C76.2069 210.944 68.2687 209.685 60.7185 207.119C67.5089 210.487 77.366 212.608 88.3405 212.608C108.823 212.608 125.428 205.225 125.428 196.118C125.428 190.97 120.12 186.374 111.809 183.35Z" fill="#F1F1F1"/>
<path d="M80.4808 200.791C68.383 200.791 62.4997 197.497 59.6946 194.734C59.1828 194.227 58.8341 193.581 58.6928 192.877C58.5514 192.173 58.6238 191.443 58.9006 190.78C59.1775 190.116 59.6465 189.55 60.2481 189.151C60.8497 188.753 61.557 188.541 62.2802 188.541H104.485C105.06 188.541 105.62 188.718 106.088 189.049C106.556 189.379 106.909 189.846 107.097 190.385C107.286 190.924 107.3 191.508 107.138 192.055C106.977 192.602 106.647 193.086 106.195 193.438C101.896 196.793 93.9452 200.791 80.4808 200.791Z" fill="#3F3D56"/>
<path d="M89.2442 158.637C85.954 156.156 81.8243 155.035 77.7199 155.508C85.0065 157.294 79.2565 167.288 85.8922 177.654C89.5085 183.302 82.4756 186.072 75.7759 186.83C79.3616 187.689 83.1361 187.296 86.4647 185.718C89.7932 184.141 92.4729 181.473 94.0533 178.165C95.6336 174.857 96.0182 171.11 95.1424 167.554C94.2666 163.997 92.1838 160.849 89.2442 158.637Z" fill="#3F3D56"/>
<path d="M81.7759 153.427H80.2219V190.138H81.7759V153.427Z" fill="#3F3D56"/>
<path d="M231.32 163.73C227.193 160.846 222.534 158.796 217.608 157.698C212.683 156.601 207.588 156.477 202.614 157.333C197.641 158.19 192.886 160.011 188.621 162.691C184.356 165.372 180.665 168.86 177.758 172.956C165.535 190.183 153.269 235.358 161.927 261.528C187.753 234.453 227.429 231.64 240.616 216.89C254.707 201.13 248.678 175.862 231.32 163.73Z" fill="#29B6F6"/>
<path d="M208.664 202.74C215.588 202.74 221.201 197.17 221.201 190.298C221.201 183.426 215.588 177.855 208.664 177.855C201.741 177.855 196.128 183.426 196.128 190.298C196.128 197.17 201.741 202.74 208.664 202.74Z" fill="white"/>
<path d="M151.329 275.078C155.864 275.078 159.541 271.429 159.541 266.928C159.541 262.428 155.864 258.779 151.329 258.779C146.794 258.779 143.118 262.428 143.118 266.928C143.118 271.429 146.794 275.078 151.329 275.078Z" fill="#29B6F6"/>
<path opacity="0.2" d="M222.077 187.427C222.907 188.838 223.449 190.397 223.672 192.016C223.895 193.635 223.794 195.282 223.376 196.862C222.957 198.442 222.23 199.925 221.234 201.227C220.238 202.528 218.994 203.621 217.572 204.445C216.15 205.269 214.579 205.807 212.948 206.028C211.317 206.249 209.658 206.15 208.065 205.734C206.473 205.319 204.979 204.597 203.668 203.609C202.357 202.62 201.255 201.385 200.425 199.974C202.663 201.923 205.526 203.017 208.502 203.061C211.479 203.106 214.374 202.098 216.67 200.217C218.966 198.337 220.512 195.707 221.033 192.798C221.553 189.889 221.014 186.891 219.511 184.341C220.528 185.225 221.395 186.267 222.077 187.427Z" fill="#231F20"/>
<path opacity="0.2" d="M240.639 216.949C227.453 231.698 187.776 234.512 161.951 261.586C161.145 259.11 160.524 256.578 160.094 254.011C185.907 229.398 223.375 226.288 236.116 212.037C247.519 199.282 245.744 180.302 235.452 167.095C249.567 180.081 253.552 202.506 240.639 216.949Z" fill="#231F20"/>
<path d="M375.834 442.016H366.477L362.025 406.192H375.837L375.834 442.016Z" fill="#FFB6B6"/>
<path d="M378.221 451.019L348.047 451.018V450.639C348.048 447.548 349.285 444.583 351.487 442.397C353.69 440.211 356.677 438.983 359.792 438.983H359.793L365.304 434.833L375.588 438.984L378.222 438.984L378.221 451.019Z" fill="#2F2E41"/>
<path d="M339.571 436.163L330.443 438.209L318.149 404.238L331.622 401.219L339.571 436.163Z" fill="#FFB6B6"/>
<path d="M343.897 444.424L314.464 451.019L314.38 450.65C313.694 447.634 314.243 444.472 315.906 441.858C317.57 439.244 320.211 437.393 323.249 436.712L323.25 436.712L327.705 431.459L338.657 433.259L341.226 432.684L343.897 444.424Z" fill="#2F2E41"/>
<path d="M387.687 223.006C392.074 236.139 391.611 250.395 386.632 265.695L384.504 351.84C388.022 355.683 390.23 371.352 384.811 382.571C377.574 397.553 382.559 418.272 377.444 428.211H362.606L358.959 387.744L355.748 383.181L355.259 346.681C353.288 342.05 351.005 337.458 355.013 332.092L354.906 325.752L354.337 291.958L331.959 324.435C331.323 331.785 327.537 335.637 322.525 338.126L329.456 368.484C341.577 378.781 338.612 394.717 338.813 409.47L342.787 426.878L324.525 428.499L316.466 404.89L307.405 390.342L291.646 332.182L302.636 306.866L307.127 296.519L332.212 238.737L387.687 223.006Z" fill="#2F2E41"/>
<path d="M232.656 176.168C233.387 176.892 234.27 177.449 235.242 177.799C236.214 178.149 237.251 178.282 238.281 178.191C239.311 178.1 240.308 177.786 241.202 177.27C242.096 176.755 242.865 176.052 243.456 175.21L267.647 181.959L263.676 169.612L241.313 165.096C239.821 164.205 238.053 163.888 236.342 164.205C234.631 164.522 233.097 165.451 232.03 166.816C230.962 168.18 230.437 169.886 230.552 171.61C230.668 173.333 231.416 174.955 232.656 176.168Z" fill="#FFB8B8"/>
<path d="M252.441 166.195L276.053 166.024C282.421 164.257 289.134 164.106 295.576 165.585L296.829 165.872L306.683 164.763C312.558 153.108 323.459 142.571 338.093 132.864C340.299 131.099 342.858 129.817 345.599 129.104C348.341 128.391 351.204 128.262 353.999 128.726C356.795 129.191 359.459 130.237 361.818 131.797C364.176 133.357 366.175 135.395 367.683 137.777C370.405 142.089 371.363 147.271 370.362 152.261C369.36 157.252 366.474 161.673 362.295 164.621L317.704 190.641C313.791 192.924 309.347 194.156 304.809 194.218L304.701 194.274L279.265 184.815L266.179 183.162L248.437 178.044L252.441 166.195Z" fill="#29B6F6"/>
<path d="M347.174 111.508C359.478 111.508 369.452 101.609 369.452 89.3973C369.452 77.1859 359.478 67.2866 347.174 67.2866C334.871 67.2866 324.896 77.1859 324.896 89.3973C324.896 101.609 334.871 111.508 347.174 111.508Z" fill="#FFB8B8"/>
<path d="M367.98 103.42C369.631 101.082 370.802 97.3369 371.494 94.5996C372.419 90.9954 372.572 87.2384 371.94 83.572C371.309 79.9057 369.909 76.4119 367.831 73.317C367.064 72.0556 365.964 71.0259 364.651 70.3388C363.303 69.7415 361.526 69.8838 360.586 71.0138C360.584 70.0223 360.376 69.0419 359.977 68.1331C359.577 67.2243 358.994 66.4064 358.264 65.7299C356.791 64.3844 355.023 63.3979 353.1 62.8486C349.394 61.7272 345.452 61.6223 341.691 62.5451C337.931 63.468 334.492 65.3841 331.74 68.0902C330.665 69.1759 331.048 63.7509 329.854 64.7065C328.698 65.7331 327.183 66.2696 325.632 66.2013C324.107 66.0401 321.302 71.4341 321.286 69.912C319.682 71.5077 318.975 78.2371 319.477 80.4358C319.978 82.6345 327.445 81.6627 329.586 82.4163C331.004 82.9154 332.544 82.9323 334.013 83.2572C336.624 83.9268 338.898 85.5221 340.405 87.7418C341.912 89.9615 342.548 92.652 342.193 95.3053C343.132 94.0515 344.27 92.9565 345.561 92.0626C346.212 91.6213 346.959 91.3405 347.741 91.2436C348.523 91.1468 349.317 91.2366 350.057 91.5056C350.725 91.8613 351.312 92.3486 351.783 92.9378C352.255 93.527 352.599 94.2056 352.797 94.9319C353.283 96.3535 353.471 97.8627 353.966 99.2813C355.42 103.444 356.169 107.813 360.22 108.8C363.416 109.579 365.725 106.613 367.98 103.42Z" fill="#2F2E41"/>
<path d="M389.588 218.623L387.142 213.768C384.148 195.356 381.189 178.183 385.208 162.737C385.461 149.252 381.262 136.584 369.601 129.666L364.341 126.544L361.679 119.841L337.161 120.435L337.089 129.222L328.308 143.122V143.179L328.856 218.816L331.281 226.622L327.622 235.702L329.563 241.496L377.899 233.826L383.52 232.931C384.169 232.725 384.795 232.454 385.389 232.122C387.406 231.01 388.986 229.257 389.877 227.145C389.927 227.023 389.971 226.909 390.014 226.787C390.393 225.801 390.612 224.761 390.663 223.707C390.751 221.949 390.381 220.198 389.588 218.623Z" fill="#29B6F6"/>
<path opacity="0.2" d="M390.663 223.707C390.612 224.761 390.393 225.801 390.014 226.787L385.389 232.122C384.795 232.454 384.169 232.725 383.52 232.931L377.899 233.826L386.031 218.652L368.158 179.816L390.663 223.707Z" fill="black"/>
<path d="M410.116 268.626C409.219 268.018 408.466 267.223 407.912 266.296C407.358 265.369 407.015 264.333 406.908 263.26C406.801 262.187 406.933 261.104 407.293 260.087C407.653 259.071 408.234 258.144 408.994 257.374L397.23 233.916L410.849 235.562L419.932 257.586C421.151 258.939 421.827 260.688 421.834 262.503C421.84 264.318 421.175 266.072 419.965 267.433C418.755 268.794 417.084 269.667 415.269 269.887C413.454 270.106 411.62 269.658 410.116 268.626Z" fill="#FFB8B8"/>
<path d="M362.427 187.912L371.351 186.689C371.351 186.689 372.212 200.042 376.481 202.066C380.75 204.09 379.311 204.423 379.814 206.565C380.317 208.708 382.595 211.945 385.977 213.421C389.358 214.897 404.739 252.017 404.739 252.017L417.69 249.02C416.492 245.797 415.702 242.439 415.341 239.022C414.886 233.857 408.988 221.669 407.045 219.86C405.103 218.051 405.871 214.861 404.864 210.577C403.857 206.292 404.556 210.265 402.878 203.124C401.201 195.983 382.337 153.186 381.546 146.593C380.756 139.999 371.499 136.118 371.499 136.118L364.304 137.784L362.427 187.912Z" fill="#29B6F6"/>
<path d="M214.219 452H495.1C495.339 452 495.568 451.906 495.737 451.738C495.905 451.571 496 451.344 496 451.107C496 450.87 495.905 450.643 495.737 450.475C495.568 450.308 495.339 450.214 495.1 450.214H214.219C213.98 450.214 213.751 450.308 213.583 450.475C213.414 450.643 213.319 450.87 213.319 451.107C213.319 451.344 213.414 451.571 213.583 451.738C213.751 451.906 213.98 452 214.219 452Z" fill="#CCCCCC"/>
</g>
<defs>
<clipPath id="clip0_337_11691">
<rect width="496" height="452" fill="white"/>
</clipPath>
</defs>
</svg>
