<svg width="83" height="64" viewBox="0 0 83 64" fill="none" xmlns="http://www.w3.org/2000/svg">
<path d="M82.3785 55.7L68.5785 23.3C68.3785 22.8 67.9785 22.3 67.5785 21.9L58.3785 13.3C57.5785 12.5 56.5785 12.2 55.4785 12.2C54.5785 12.2 53.7785 12.5 52.9785 13L48.0785 16.5C48.1785 15.8 48.1785 15.1 48.1785 14.4C48.1785 1 39.4785 0.1 35.3785 0H35.2785H35.1785C31.0785 0 22.3785 1 22.3785 14.4C22.3785 15 22.3785 15.7 22.4785 16.3L17.6785 19.4C16.9785 19.8 16.4785 20.4 16.1785 21.2L0.378471 55.3C-0.421529 57.1 0.0784713 59.1 1.57847 60.4C2.37847 61 3.27847 61.4 4.27847 61.4C5.17847 61.4 6.07847 61.1 6.77847 60.6L24.6785 47.4L36.5785 61.6C37.3785 62.5 38.3785 63.1 39.5785 63.1C39.6785 63.1 39.7785 63.1 39.7785 63.1C40.8785 63.1 41.8785 62.7 42.6785 61.9L58.9785 46.1L75.7785 60.6C76.5785 61.3 77.5785 61.6 78.5785 61.6C79.4785 61.6 80.2785 61.3 81.0785 60.8C82.5785 59.6 83.1785 57.5 82.3785 55.7ZM28.8785 4.4C30.9785 2.9 33.5785 2.7 35.2785 2.7C39.9785 2.8 45.4785 4.1 45.4785 14.4C45.4785 15.8 45.2785 17.2 44.9785 18.7C44.7785 19.8 44.4785 20.9 44.0785 21.9C43.8785 22.6 43.5785 23.3 43.2785 24C43.0785 24.4 42.8785 24.9 42.7785 25.3C42.5785 25.9 42.2785 26.4 41.9785 26.9C39.7785 31.3 37.0785 35 35.1785 37.4C33.5785 35.5 31.3785 32.5 29.4785 29.1C29.2785 28.7 28.9785 28.2 28.7785 27.7C27.3785 25.1 26.2785 22.2 25.5785 19.3C25.3785 18.6 25.2785 17.8 25.1785 17C25.0785 16.2 24.9785 15.4 24.9785 14.6C24.9785 14.5 24.9785 14.4 24.9785 14.3C25.1785 9.5 26.3785 6.2 28.8785 4.4ZM4.27847 57.1L20.1785 23L23.4785 20.9C24.4785 24.7 26.1785 28.3 28.0785 31.4L25.1785 41.6L4.27847 57.1ZM39.5785 58.6L26.0785 42.4L28.6785 32.7C31.5785 37.3 34.5785 40.6 35.2785 41.3L35.3785 41.4L35.4785 41.3C36.1785 40.6 38.8785 37.6 41.6785 33.2L39.5785 58.6ZM40.6785 58.2L42.9785 31.2C44.4785 28.6 45.8785 25.7 46.8785 22.7L55.1785 16.7L58.6785 40.7L40.6785 58.2ZM59.8785 41.2L56.2785 17.1L64.6785 24.9L78.4785 57.3L59.8785 41.2Z" fill="black"/>
<path d="M35.4784 19.4001C39.2784 19.4001 42.3784 16.3001 42.3784 12.5001C42.3784 8.7001 39.2784 5.6001 35.4784 5.6001C31.6784 5.6001 28.5784 8.7001 28.5784 12.5001C28.5784 16.3001 31.6784 19.4001 35.4784 19.4001ZM35.4784 8.2001C37.8784 8.2001 39.7784 10.1001 39.7784 12.5001C39.7784 14.9001 37.8784 16.8001 35.4784 16.8001C33.0784 16.8001 31.1784 14.9001 31.1784 12.5001C31.1784 10.1001 33.0784 8.2001 35.4784 8.2001Z" fill="black"/>
</svg>
